<?xml version="1.0" encoding="utf-8"?>
<!-- Generator: Adobe Illustrator 19.1.1, SVG Export Plug-In . SVG Version: 6.00 Build 0)  -->
<svg version="1.1" xmlns="http://www.w3.org/2000/svg" xmlns:xlink="http://www.w3.org/1999/xlink" x="0px" y="0px"
	 viewBox="0 0 491 566.9" style="enable-background:new 0 0 491 566.9;" xml:space="preserve">
<style type="text/css">
	.st0{fill:#EFAFAF;}
	.st1{fill:#C0C1C5;}
	.st2{fill:#776D7C;}
	.st3{fill:#E9A18A;}
	.st4{fill:#F1D6BB;}
	.st5{fill:#C37A7A;}
	.st6{fill:#A42323;}
	.st7{fill:#B5E1E6;}
	.st8{fill:#1C9399;}
	.st9{fill:#373240;}
	.st10{fill:#FFFFFF;}
	.st11{font-family:'NexaBold';}
	.st12{font-size:63.9112px;}
	.st13{font-family:'Helvetica';}
	.st14{font-size:18.4666px;}
</style>
<g id="Background">
	<polygon class="st0" points="245.5,547.6 16.8,415.5 16.8,151.4 245.5,19.4 474.2,151.4 474.2,415.5 	"/>
</g>
<g id="Hexagone">
	<path class="st6" d="M245.5,0L0,141.7v283.5l245.5,141.7L491,425.2V141.7L245.5,0z M474.2,415.5l-228.7,132l-228.7-132V151.4
		l228.7-132l228.7,132V415.5z"/>
</g>
<g id="Couleurs">
	<path id="Partie_haute_autre_couleur_1_" class="st7" d="M357.6,286.5c-3.6-14.4-8.6-28.4-15.2-41.7c-1.3-2.7-1.3-4,0.4-4.5v-3.1
		c-0.9,0-1.9-0.1-2.9-0.1c-6.1-0.3-5.3-0.2-9.2-0.3c-9.6-0.4-19.2-0.5-28.8,0c-5.7,0.2-7.3,1.5-8.9,7.2c-2,6.9-3.9,13.9-5.8,20.8
		c-1.1,3.8-1.8,7.7-3.4,11.3c-3.9,8.5-3.3,16.8-0.8,25.5c1.7,5.8,3.3,11.7,4.3,17.7c26.3-2.5,52.6-5,78.9-7.5
		c-0.9-5.1-2.6-10.1-5.2-14.9C359.3,293.5,358.5,290,357.6,286.5z M347.8,293.2c-41.1,2.3-46.3,2.5-46.3,2.5
		c-4.9,0.4-11.5,1.1-13.6-2.3c-0.8-1.2-0.8-2.7-0.8-5.3c0-4.9,1-8.6,1.2-9.1c1.2-4.2,6.3-24.6,8.5-32.9c1.3-5,3.1-6.5,8.3-6.7
		c4.7-0.2,9.4,0,14.1,0c6.8,0.1,11.9,0.2,14.4,0.2c0.5,0,1.7,0,2.8,0.7c0.8,0.5,1.4,1.3,1.9,2.5c1.6,3.8,3.4,7.5,5,11.4
		c4.1,10.2,7.4,20.7,9.8,31.5C354.1,290.6,352.4,292.9,347.8,293.2z"/>
	<g id="Partie_basse_autre_couleur_1_">
		<path class="st8" d="M287.4,319c0.3,2,0.6,3.9,0.9,5.9c0.2,1.8,0.4,3.7,0.5,5.5c0.2,6.1,0.2,6.2,6.4,5.6
			c20.9-1.8,41.9-3.7,62.8-5.6c2.5-0.2,5-0.4,7.5-0.6c1.5-0.2,2.1-0.9,2.1-2.6c0-5.4-0.2-10.6-1.2-15.8
			C340,314,313.7,316.5,287.4,319z"/>
		<path class="st8" d="M365.2,343.2c-1.2,5.8-3.1,11.4-5.8,16.6c-0.5,1-1.3,1.4-1.7,1.6c-1.2,0.9-2.5,1.3-3.5,1.7
			c-1.2,0.4-2.1,0.6-2.3,0.6c-4.5,0.8-24.8,2.7-35.5,4.5c-9.5,1.6-19.3,1.5-28.8,3.3c-0.3,0.1-1.6,0.3-2.1-0.3
			c-0.3-0.3-0.3-0.9-0.1-1.9c1.7-6.2,2.4-12.6,3-19c0-0.2,0.1-0.9,0.6-1.4c0,0,0.3-0.3,0.7-0.4c2.1-0.7,54.9-5.1,57.5-5.4
			c4.8-0.4,7.2-0.6,7.8-0.8c2.8-0.6,5.7-0.5,8.5-1c0.3,0,1-0.2,1.4,0.2C365.3,341.8,365.4,342.4,365.2,343.2z"/>
		<path class="st8" d="M289.1,339.5c0-0.2,0-0.5-0.1-0.7c25.7-2.3,51.4-4.6,77.1-6.8c0,0.2,0.1,0.4,0.1,0.6
			C340.5,334.8,314.8,337.2,289.1,339.5z"/>
	</g>
	<g id="Parties_basse_1_">
		<path class="st2" d="M160.2,316.1c-3.2-0.4-2.5-0.3-16.2,0c-4,0.1-9.1,0.1-15.7-0.1c-11.4-0.4-22.8,0.7-34.1,0.2
			c-7.8-0.3-15.6-0.4-23.4-0.1c-2.3,0.1-5,0.4-8.1-0.5c0,0,0,0,0,0c0.5,0.5,0.5,1.5,0.1,3c-1,3.7-1.2,7.5-1.5,11.3
			c-0.2,2.6,0.8,3.3,3.3,3.4c13.3,0.2,26.6,0.6,39.9,0.9c17.1,0.3,34.2,0.4,51.4,0.8c3.2,0.1,4.7-1,5.6-3.9
			c1.3-4.3,3.3-8.3,6.5-11.5c1.6-1.6,3.3-2.5,5.4-2.8C166.9,317.1,162.2,316.3,160.2,316.1z"/>
		<path class="st2" d="M210.8,391.4c-23.7,0.9-47.5-0.1-71.2-1c-26.1-0.9-52.3-2.3-78.4-4.2c-3.9-0.3-7.8-0.6-11.7-1
			c-0.5-0.1-1.6-0.2-2.4-1c-1.1-1.1-1.1-2.9-1-3.7c0-0.8,0-1.2,0.3-1.6c0.6-0.7,1.7-0.5,3.5-0.4c1.5,0.1,2.9,0,4.4,0.3
			c3.9,0.6,32.8,2.4,57.5,4c45.9,2.9,60.8,2.4,68.6,2.6c4.7,0.2,9.4,0.2,14.1,0.3c0.3,0,1.2,0.2,1.7-0.3c0.4-0.4,0.5-1.1,0.2-1.6
			c-0.4-0.6-1.3-0.6-1.6-0.6c-69.7-2.1-69.9-2.1-69.9-2.1s-5.7,0.8-75.8-4c-2-0.1-3.1-1-4.3-2.5c-1.2-1.4-0.8-1.6-2.5-4.4
			c-0.5-0.8-1-1.6-0.8-2c0.2-0.2,0.6-0.1,0.7-0.1c2.1,0.4,26.6,1.7,29.8,1.4c0.3,0,1.5-0.1,2,0.5c0.1,0.2,0.2,0.4,0.2,0.8
			c0,1.7-1.4,0.9-2.2,0.9c-8.3-0.3-16.6-0.8-24.8-1.1c-1.2,0-3.1-1.2-3.4,0.3c-0.2,1.3,2.5,2.6,3.3,3c4.4,2.2,61.3,4.1,77.1,4.6
			c22.6,1.5,46.3,2.3,71,2.1c9.1-0.1,18-0.2,26.7-0.5C220.4,389.5,218.7,391.1,210.8,391.4z"/>
		<path class="st2" d="M40.7,345.9c-0.4,0-2.1-0.1-3.3,0.9c-0.6,0.6-0.9,1.3-1,1.5c-0.2,0.6-0.2,1.1-0.1,2.9
			c0.2,2.1,0.3,2.8,0.2,2.8c-0.2,0-0.6-1-0.9-2c-1-3.1-2-5.9-0.8-8.3c0.2-0.3,0.6-1.1,1.5-1.7c0,0,1-0.7,2.5-0.7
			c3.4-0.1,186.9,3.4,186.7,4.6C225.2,347.2,44.9,346,40.7,345.9z"/>
		<path class="st2" d="M158.5,337.4l-0.1,2.7c0,0.6-0.5,1-1.1,1L62,339c-0.6,0-1-0.5-1-1.1l0.1-2.7c0-0.6,0.5-1,1.1-1l95.4,2.1
			C158.1,336.3,158.5,336.8,158.5,337.4z"/>
		<path class="st2" d="M278,351.8c0.3-1.7,1.2-2.4,2.4-2.6c2.1-0.4,4.5-0.2,5.6,0.6c0.2,0.2,0.8,0.6,0.8,1.3c0,0.1,0,0.1,0,0.2
			c-1.9,10.3-3.2,17.6-3.2,18.9c0,0.2,0,1.1-0.6,1.6c-0.3,0.3-0.7,0.3-0.8,0.4c-1.4,0.2-1.6-0.9-1.8-1.8c-0.6-2.6-1-5.4-1.7-8
			C277.8,358.9,277.3,355.5,278,351.8z"/>
		<path class="st2" d="M430.1,320.9c-0.5-5.1-0.7-10.3-1.5-15.3c-20.3,1.9-40.5,3.9-60.8,5.8c0,0,0,0,0,0c1.2,5,1.7,10.1,1.4,15.4
			c-0.1,2.4,0.6,2.8,2.9,2.7c11.2-0.8,22.3-2.7,33.5-3.2c2.2-0.1,4.4-0.6,6.3-2.3c3.2-3,7.1-2.7,10.6-0.7c2.5,1.4,4.6-0.2,6.8-0.4
			C430.2,322.8,430.2,321.7,430.1,320.9z"/>
		<path class="st2" d="M402.5,338.4c-0.5,1.9-6.2,15.7-7,17.5c-0.1,0.3-0.3,0.7-0.6,1c-0.8,0.9-1.9,1-2.2,1
			c-10.2,1.2-17.8,2-21.5,2.4c-1.3,0.2-4.9,0.6-6.7-1.3c-0.1-0.1-0.1-0.1-0.1-0.1c-1.1-1.4-1-3.7,0.2-6.9c1-2.9,2-5.8,2.6-8.7
			c0.4-2,1.3-2.7,3.3-2.8c2.9-0.2,5.8-0.7,8.8-1c7.1-0.8,14.2-1.5,21.4-2.2c0.5,0,1.5-0.3,1.9,0.1
			C402.7,337.7,402.5,338.2,402.5,338.4z"/>
		<path class="st2" d="M287,334c-0.2-3.9-0.3-7.8-1-11.7l0,0.1c-0.5-7.9-2.9-15.5-4.8-23.1c1.7,6.6,3.6,13.1,4.5,19.8
			c-25.9,2.5-51.9,4.9-77.8,7.4l0,0c0.6,3.9,0.8,7.7,0.7,11.7c-0.1,2.1,0.6,2.9,2.8,2.9c7.8-0.3,15.7-0.6,23.5-0.7
			c1.9,0,3.2-1,4.5-2.2c2.5-2.3,4.7-5.4,7.7-6.4c3.7-1.3,7.7-1.8,11.8-2.1c6.8-0.5,10.8,3,14.5,7.7c0.7,0.9,1.5,1.3,2.5,1
			c2.8-1,5.8-1,8.7-1.3C286.6,336.8,287.1,335.9,287,334z"/>
		<path class="st2" d="M180.9,374c1.1,0,2.3,0,3.5,0c-0.4,1.1-1,0.8-1.5,0.9c-13.7,0.6-27.4-0.2-41.2-0.3c-0.9,0-2-0.1-1.9-1.2
			c0.1-1.3,1.3-0.8,2.1-0.8C154.9,373,167.9,373.5,180.9,374z"/>
		<path class="st2" d="M434.4,325.9c-2.9,0.1-5.9,0.3-8.8,0.4c0-0.3,0-0.5,0-0.8C428.6,325.5,431.5,324.9,434.4,325.9z"/>
		<path class="st2" d="M392.1,361c-6.8-0.2-13.4,1.3-20,2.3c-10,1.4-23.3,3.2-34.5,4.8c-5.1,0.7-55.9,8.4-56.8,7.4
			c-0.2-0.3-0.3-0.6-0.3-0.6c-0.1-0.4,0-0.7,0.1-0.9c0.4-0.5,1.6-0.3,1.7-0.3c1.3,0.2,36.5-4.4,112.3-15
			C393.8,360.5,392.9,361,392.1,361z"/>
		<path class="st2" d="M276.1,340.2c3.5-0.4,7.1-0.8,10.6-1.2c0,0.2,0.1,0.5,0.1,0.7c-3.5,0.4-7.1,0.7-10.6,1.1
			C276.1,340.6,276.1,340.4,276.1,340.2z"/>
		<path class="st2" d="M407.7,328.7c-12.5,1.1-25,2.2-37.4,3.4c0-0.2,0-0.3,0-0.5c12.4-1.2,24.9-2.4,37.3-3.6
			C407.7,328.2,407.7,328.4,407.7,328.7z"/>
	</g>
	<g id="Partie_haute_1_">
		<path class="st1" d="M207.1,322.4c0.3,1.4,0.6,2.8,0.9,4.2c25.9-2.5,51.9-4.9,77.8-7.4c-1.2-9.4-4.6-18.4-6.2-27.7
			c-0.1-0.4-0.2-0.9-0.2-1.3c-0.8-5.2-0.9-5-6.1-3.2c-13.4,4.8-26.9,9.2-40.2,14c-10.9,3.9-21.8,7.9-32.3,13c-1.5,0.7-3.7,1.6-3.4,3
			c0.3,1.7,2.7,0.7,4,0.5C205.1,317.1,206.3,319.1,207.1,322.4z"/>
		<path class="st1" d="M248.8,287.2c-8.7-0.5-15-0.7-27-1.1c-18.4-0.6-27.6-0.9-28.1-0.9c-14.4,0-28.8-0.2-43.2,0.8
			c-8.2,0.5-16.2,2.6-24.3,4.5c-11.9,2.7-23.9,5.1-35.5,9.2c-11.6,4-23.4,7.4-34.9,11.8c-1.9,0.7-3.9,1.4-6.1,3.5
			c3.8,0,6.8,0.1,9.8,0c1.4,0,2.4,0.5,3,0.7c3.1,0.9,5.8,0.7,8.1,0.5c7.8-0.4,15.6-0.3,23.4,0.1c11.3,0.5,22.7-0.7,34.1-0.2
			c6.6,0.3,11.7,0.2,15.7,0.1c13.7-0.4,13-0.4,16.2,0c2.1,0.3,6.8,1,13.2,0.6c0.8,0,0.6-0.1,1.4-0.1c5.9,0.1,11.8,0.1,17.7,0.2
			c1.6,0,2.9-0.3,4.1-1.5c2.4-2.2,5.4-3.2,8.3-4.5c18.7-8,38-14.4,57.2-21c1.3-0.5,2.6-1,4-1.5C262,288.1,256,287.6,248.8,287.2z"/>
		<path class="st1" d="M191.1,235.4c17.3-3,34.8-4.2,52.4-4.5c11.3-0.2,22.7-0.4,34-0.6l-0.1-0.1c1,0.5,2.1,0.4,3.2,0.4
			c16.7,0.3,33.4,0.4,50,1.4c16,0.9,31.8,3.1,47.5,6.3c0.7,0.1,1.6,0.2,1.4,1.8c-9.2-2.7-18.6-3.5-28-4.2c-17.3-1.4-34.6-1.8-52-1.1
			c-3.6,0.2-6.2,1.9-7.4,5.4c-0.9,2.6-1.8,5.2-2.5,7.8c-3,11.8-6.3,23.5-10.5,35c-0.6,1.7-1.4,2.8-3.3,2c5.2-13.8,8.5-28.1,12.8-42
			c0.9-2.9-0.6-4.7-3.2-5.6c-2.7-0.9-5.5-1.3-8.3-1.3c-10.8-0.1-21.6,0-32.4-0.2c-18-0.4-35.9,0.7-53.9,2.2
			c-3.8,0.3-7.5,0.9-11.3,1.3C183.3,237.3,187.1,236.1,191.1,235.4z"/>
		<path class="st1" d="M428.3,304c-1.1-6-4.6-10.8-8.7-15.3c-1.3-1.4-4.2-5.8-6.7-8.6c-0.4-0.4-1.8-2-3.6-3.9
			c-0.7-0.8-1.2-1.3-1.4-1.4c-7.1-8.7-14.6-17-22.4-25.1c-1.6-1.6-3-3.5-4.3-5.3c-0.3-0.4-0.4-1-0.4-1.1c0.1,0,0.2,0,0.4,0
			c0.7,0,1.1,0.3,1.2,0.2c0.1-0.1-0.1-0.4-0.3-0.6c-0.2-0.3-0.4-0.4-0.5-0.5c0,0-0.4-0.3-0.8-0.4c-8.1-3.1-23-4-23-4
			c-3.2,0-6.9-0.5-11.9-0.6c-1.4,0-2.6-0.1-3.5-0.1c-0.8-0.1-1.1,0.1-1.1,0.2c-0.3,0.5,0.3,1.6,1.5,2.8c0,0,0,0,0,0
			c1.5-0.3,2.7-0.2,3.1-0.2c4.4,0.1,13,0.2,23.2,1.8c2.4,0.4,4.7,1.2,6.4,3c9.8,9.9,19.3,20.2,26.2,32.5c1,1.8,1.9,3.7,2.2,5.8
			c0.5,4-1.1,6.3-5.2,6.8c-5,0.5-10,0.9-15,1.2c-6.4,0.4-12.8,0.6-19.3,1c-1.5,0.1-3,0.1-4.5-1.1c0,1.7,0.7,2.8,1.3,3.9
			c2.8,5.4,5,10.9,6.3,16.6c20.3-1.9,40.5-3.9,60.8-5.8C428.5,305.1,428.4,304.5,428.3,304z"/>
		<path class="st1" d="M407.9,272.2c-1.2,0.1-1.6-1-2.2-1.6c-5.4-6.4-11-12.5-16.5-18.8c-2.2-2.5-5.2-4.5-6.5-7.9
			C391.7,252.7,400.3,262,407.9,272.2z"/>
	</g>
	<g id="Blanc_1_">
		<path id="Marque_1_" class="st1" d="M107.3,330.5c1.1,0.8,2.3,0.6,2.8,0.5c2.7-0.3,4.1-3,4.2-3.2c0.1-0.2,1.7-3.6-0.2-5.7
			c-1.5-1.5-3.7-1.1-3.9-1.1c-2.1,0.4-3.1,2.2-3.4,2.7C105.6,325.8,105.4,329.2,107.3,330.5z"/>
		<path class="st1" d="M315.7,271.4c2.4-0.2,4.7-0.5,5.6,1.1c1.2,2.1,0.2,4.5-1.4,6.6C319.2,276.3,318.4,273.7,315.7,271.4z"/>
		<ellipse class="st1" cx="415" cy="360.4" rx="11.6" ry="22.6"/>
		<path class="st1" d="M268.5,393.1c-6,11.4-20.9,14.2-29.1,5.4c-11.4-12.1-11.1-32.5,0.8-44.1c7.7-7.6,17.4-7.3,24.7,0.6
			c5.5,6,7.6,13.3,7.7,21.8C272.5,382.3,271.2,387.9,268.5,393.1z"/>
		<path class="st1" d="M120.7,288.5c-0.6-2.4-1.4-4.5,0.1-5.7c1.9-1.6,4.4-1.1,6.7,0.1C124.8,284.2,122.4,285.5,120.7,288.5z"/>
		<path class="st1" d="M75.1,357.6c-0.1-0.8,0.9-1.4,2-1.4l58.1,2c1.2,0,2.1,0.7,2.2,1.5l0.9,13.8c0.1,0.8-0.9,1.4-2,1.4l-58.1-2
			c-1.2,0-2.1-0.7-2.2-1.5L75.1,357.6z"/>
	</g>
	<g id="Phares_1_">
		<path class="st4" d="M193.6,339.2c1-5.2,1.9-10.5,2.9-15.8c0.2-1.3,0.2-3.1,2.4-2.6c2.1,0.5,5.2-1.5,6.1,2.5
			c0.7,3.5,0.9,6.9,1,10.4c0.1,7.7,0.1,7.7-7.7,7.9c-0.8,0-1.5,0-2.3,0.1C193.9,342,193.2,341.2,193.6,339.2z"/>
		<path class="st4" d="M192,339.5c-0.3,0.8-0.6,1.3-1.1,1.7c-0.7,0.5-1.5,0.4-1.7,0.4c-1.3,0-25.2-0.3-28.2-0.8
			c-0.1,0-0.4-0.1-0.5-0.3c-0.2-0.2-0.1-0.6,0-1c1.7-6.6,3.5-13.1,8.3-18.2c0.8-0.9,1.6-1.9,3-1.8c7.4,0.2,14.8,0.4,22.2,0.5
			c1.1,0,1.6,0.3,1.4,1.5C194.4,327.5,194,333.6,192,339.5z"/>
		<path class="st4" d="M38,335.5c0.6-3,0.7-3.6,0.7-3.6c1.4-4.1,1-3.6,2.2-7c0.7-2.1,1.1-2.9,1.5-3.7c1.1-2.2,1.8-3,2.3-3.4
			c1.3-1.2,2.4-1.4,2.6-1.5c0.5-0.1,1-0.1,1.6-0.1c3.4,0.5,7,0.3,10.4,0.4c0.8,0,1.7,0.1,2.1,0.6c0.3,0.5,0.2,1.1,0.1,1.3
			c-0.5,2.1-2.2,13.8-1.8,17.9c0,0.2,0.1,0.9-0.3,1.4c-0.8,1.1-2.9,0.8-4.1,0.7c-4.2-0.4-13.8-0.7-15.9-0.7c-0.3,0-1.1,0-1.5-0.5
			C37.7,337.1,37.8,336.4,38,335.5z"/>
		<path class="st4" d="M39.3,365l-0.1-7.7c0-0.4,0.3-0.8,0.6-0.8l16.7,0.6c0.3,0,0.6,0.4,0.6,0.8l0.1,7.7c0,0.4-0.3,0.8-0.6,0.8
			l-16.7-0.6C39.6,365.9,39.3,365.5,39.3,365z"/>
		<path class="st4" d="M167.1,362.3c0-0.5,0.3-0.9,0.7-0.9l19.5,0.7c0.4,0,0.7,0.4,0.7,1l0.2,9c0,0.5-0.3,0.9-0.7,0.9l-19.5-0.7
			c-0.4,0-0.7-0.4-0.7-1L167.1,362.3z"/>
	</g>
</g>
<g id="Cadre_noir">
	<path class="st9" d="M145.4,291.1c0.3,0.2,0.6,0.2,0.7,0.2c9.9-0.1,19.7,0.1,29.6,0c1.1,0,27.5-0.2,30.2-0.2c0.1,0,0.8,0,1.4-0.4
		c0.3-0.2,0.9-0.5,0.9-1.1c0-0.5-0.3-0.9-0.6-1.1c-0.3-0.2-0.6-0.2-0.6-0.2c-59.8-0.5-60-0.5-60.3-0.5c-0.1,0-0.4,0-0.8,0.2
		c-0.1,0.1-1,0.5-1.1,1.4c-0.1,0.4,0,0.7,0.1,0.8C144.9,290.6,145,290.9,145.4,291.1z M146.7,289.1h60c0.3,0,0.5,0.2,0.5,0.5
		c0,0,0,0,0,0c0,0,0,0.1,0.1,0.1c0,0-0.1,0-0.1,0c-0.1,0.2-0.3,0.3-0.5,0.3h-56.2c-1.3,0-2.6,0-3.8,0c-0.3,0-0.5-0.2-0.5-0.5
		C146.2,289.4,146.4,289.1,146.7,289.1z"/>
	<path class="st9" d="M105.8,296.9c-0.1-0.2-0.1-0.4-0.2-0.6c-7.4,2.4-14.8,4.9-22.3,7.3c0.1,0.2,0.2,0.5,0.2,0.7
		C91,301.8,98.4,299.3,105.8,296.9z"/>
	<path class="st9" d="M252.2,367.2c-2.8,0.1-4.7,1.7-5.8,4.2c-1.6,3.7-1.9,7.4-0.1,11.1c2.3,4.7,7.3,5.2,10.5,1
		c1.6-2.1,2.3-4.4,2.3-7.5c0.1-1.5-0.6-3.2-1.4-4.9C256.6,368.9,255,367.1,252.2,367.2z M252.3,384c-2.7,0.2-5-3-5.1-7.2
		c-0.1-3.5,2-6.6,4.7-6.8c2.8-0.2,5.2,2.8,5.2,6.6C257.2,380.8,255.2,383.8,252.3,384z"/>
	<path class="st9" d="M251.8,351.7c-10.4,0-18.8,11.1-18.8,24.7s8.4,24.7,18.8,24.7c10.4,0,18.8-11.1,18.8-24.7
		S262.2,351.7,251.8,351.7z M251.8,398.7c-9.4,0-16.9-10-16.9-22.3c0-12.3,7.6-22.3,16.9-22.3c9.4,0,16.9,10,16.9,22.3
		C268.7,388.7,261.1,398.7,251.8,398.7z"/>
	<path class="st9" d="M419.8,314.2c2,0,3.5-1.8,3.5-4.1s-1.6-4.1-3.5-4.1c-2,0-3.5,1.8-3.5,4.1S417.9,314.2,419.8,314.2z
		 M419.8,307.5c1.2,0,2.2,1.2,2.2,2.6c0,1.4-1,2.6-2.2,2.6s-2.2-1.2-2.2-2.6C417.6,308.7,418.6,307.5,419.8,307.5z"/>
	<path class="st9" d="M415,340.6c-5.6,0-10.1,8.9-10.1,19.8c0,10.9,4.5,19.8,10.1,19.8c5.6,0,10.1-8.9,10.1-19.8
		C425.2,349.5,420.6,340.6,415,340.6z M415,377.8c-4.9,0-8.9-7.8-8.9-17.3c0-9.6,4-17.3,8.9-17.3c4.9,0,8.9,7.8,8.9,17.3
		C423.9,370,419.9,377.8,415,377.8z"/>
	<ellipse class="st9" cx="415" cy="360.4" rx="1.3" ry="2.5"/>
	<path class="st9" d="M349.9,300.9c-0.5,0.6-0.5,1.4-0.4,2.7c0,1.3,0,2.4,0.7,3.2c0.5,0.6,1.1,0.7,5.2,0.7c4,0,4.7-0.2,5.2-0.8
		c0.7-0.8,0.6-2,0.6-3c-0.1-1-0.1-2.3-1-3.1c-0.7-0.6-1.4-0.6-4.9-0.5C351.3,300.2,350.5,300.1,349.9,300.9z M351,301.5
		c0.5-0.6,1.2-0.6,4.2-0.6c2.9-0.1,3.4-0.1,4,0.4c0.7,0.7,0.7,1.7,0.8,2.5c0,0.8,0.1,1.8-0.5,2.4c-0.4,0.5-0.9,0.6-4.2,0.6
		c-3.2,0-3.7-0.1-4.1-0.5c-0.5-0.6-0.5-1.5-0.6-2.6C350.6,302.5,350.6,301.9,351,301.5z"/>
	<path class="st9" d="M162.2,338.9c0-0.3,0-0.6,0-0.9C162.2,338.3,162.2,338.6,162.2,338.9z"/>
	<path class="st9" d="M436.8,388.8c-0.7-0.3-1.2-0.4-2.2-0.2c-2.3,0.5-4.3-0.4-6.4-0.5c-1.4,0-2.5,1.7-4.3,0.6
		c-0.9-0.5-1.3-0.5-0.6-1.3c4-5.3,4.3-11.8,6.1-17.8c1.6-5.4,1.8-11.1,0.8-16.6c-0.4-1.9-0.2-3.1,1-4.3c5.5-5.4,7.2-12.3,7.3-19.7
		c0-2.3-0.3-4.4-3.1-5.1c-0.4-0.1-0.7-0.3-0.8-0.5c-0.5-0.6-0.3-1.4-0.3-1.6c0.3-2-1.8-16.9-7.2-26.7c-0.5-1-1.1-2-5.9-8
		c-15.5-19.6-29.5-34.8-33.9-40.6c-1.4-1.9-2.4-3-4.3-5.3c-1.4-1.7-2.1-2.5-2.6-2.8c-0.6-0.4-1.7-1.1-7.6-2.3
		c-0.8-0.2-1.8-0.4-2.1-0.4c-30.2-5.6-79.3-6.4-79.3-6.4s-52.4-2.8-89.7,3.1c-4.7,0.7-8.6,1.5-11.1,1.9c-3.2,0.5-7.9,1.7-12.9,4.5
		c-4,2.2-6.4,5-13.6,11.8c-10.4,9.8-20.5,19.9-29.8,30.8c-1.1,1.3-2,2.4-4.1,0.8c-1.4-1.1-3.6-1.5-5.6-1.4c-2,0.2-4.4,0-5.3,2.4
		c-0.9,2.5-0.5,4.8,1.8,6.8c-8.1,2-16,4-23.8,6.5c-14.3,4.7-28.7,8.8-42.6,14.4c-2.8,1.2-8.8,3.3-12.1,8.9c-0.4,0.7-1,2.3-2.3,5.4
		c-3.6,9.3-3.2,12.6-3.2,13.6c0,0.6,0.5,1.4-0.3,1.7c-4.4,1.6-3.6,5.3-3,8.5c1,5.4,2.4,10.8,3.8,16.1c0.3,1.3,1.2,2.2,1.2,2.2
		c0,0,0,0,0,0c1.6,1.6,3.7,6.2,3.7,6.2c1.7,3.7,1.9,3.7,2.1,4.7c0.2,1.2,0,1.7,0.2,3.2c0.2,1.5,0.4,2.6,1,3.5
		c0.3,0.4,1.1,1.5,7.4,2.2c4,0.5,5.2,0.3,6.4,1.4c0.5,0.5,1.3,1,2,2.7c0.3,0.9,1,1.7,1.5,2.5c6.7,9.1,14.8,15.6,26.9,15.4
		c4.6-0.1,9.3,0.6,13.9,0.9c4.6,0.3,5.5,0.3,27.4,2c22.3,1.8,55.6,4.3,59.5,4.6c44.4,3.3,90,1.5,101,1c93.7-4.1,147.3-23.2,147-26
		C438.6,391.5,438.3,389.5,436.8,388.8z M434.4,325.9c-2.9,0.1-5.9,0.3-8.8,0.4c0-0.3,0-0.5,0-0.8
		C428.6,325.5,431.5,324.9,434.4,325.9z M407.9,272.2c-1.2,0.1-1.6-1-2.2-1.6c-5.4-6.4-11-12.5-16.5-18.8c-2.2-2.5-5.2-4.5-6.5-7.9
		C391.7,252.7,400.3,262,407.9,272.2z M380.4,241.9c0.9,0.3,1.7,0.3,1.9,1.4c-0.8-0.1-2.2-0.7-1,0.9c1.3,1.9,2.7,3.7,4.3,5.3
		c7.8,8.1,15.3,16.4,22.4,25.1c0.1,0.1,0.6,0.7,1.4,1.4c1.8,1.9,3.2,3.5,3.6,3.9c2.5,2.8,5.4,7.2,6.7,8.6c4.2,4.4,7.7,9.3,8.7,15.3
		c1,5.6,1.2,11.3,1.8,16.9c0.1,0.8,0.1,1.9-0.7,1.9c-2.3,0.2-4.3,1.8-6.8,0.4c-3.6-2-7.4-2.2-10.6,0.7c-1.9,1.7-4,2.2-6.3,2.3
		c-11.2,0.5-22.3,2.4-33.5,3.2c-2.3,0.2-3.1-0.3-2.9-2.7c0.6-11.4-2.6-22-7.8-32c-0.6-1.1-1.3-2.2-1.3-3.9c1.5,1.2,2.9,1.2,4.5,1.1
		c6.4-0.3,12.9-0.6,19.3-1c5-0.3,10-0.7,15-1.2c4.1-0.4,5.7-2.7,5.2-6.8c-0.3-2.1-1.1-4-2.2-5.8c-7-12.3-16.4-22.5-26.2-32.5
		c-1.8-1.8-4-2.6-6.4-3c-7.9-1.2-15.8-1.7-23.8-1.8c-4-0.1-4.7,1.1-2.9,4.7c6.6,13.3,11.6,27.3,15.2,41.7c0.9,3.5,1.6,7,3.4,10.2
		c5.4,9.5,6.5,20,6.4,30.7c0,1.7-0.5,2.5-2.1,2.6c-2.5,0.2-5,0.4-7.5,0.6c-20.9,1.9-41.9,3.8-62.8,5.6c-6.2,0.5-6.1,0.4-6.4-5.6
		c-0.1-1.9-0.3-3.7-0.5-5.5c-0.9-8-2.9-15.9-5.2-23.6c-2.5-8.7-3.1-17,0.8-25.5c1.6-3.5,2.3-7.5,3.4-11.3c2-6.9,3.8-13.9,5.8-20.8
		c1.7-5.7,3.2-7,8.9-7.2c17-0.7,34,0.2,51,1.1C362.2,238.3,371.5,239.1,380.4,241.9z M407.7,328.7c-12.5,1.1-25,2.2-37.4,3.4
		c0-0.2,0-0.3,0-0.5c12.4-1.2,24.9-2.4,37.3-3.6C407.7,328.2,407.7,328.4,407.7,328.7z M358.4,282.3c-4-12.2-8.3-24.3-13.8-35.9
		c-0.9-1.8-0.5-2.5,1.6-2.4c6.1,0.3,12.2,0.5,18.3,0.8c4.4,0.2,8,1.9,11.1,5.3c6.9,7.7,13.4,15.8,19.3,24.3c0.9,1.2,1.5,2.7,2,4.1
		c1.1,3.1,0.2,4.6-3.1,4.9c-3.7,0.4-7.5-0.1-11.2,0c-4,0.1-8.2-0.1-12,0.5c-3.5,0-6.6,0-9.8,0C359.5,283.9,358.8,283.6,358.4,282.3z
		 M289.1,339.5c0-0.2,0-0.5-0.1-0.7c25.7-2.3,51.4-4.6,77.1-6.8c0,0.2,0.1,0.4,0.1,0.6C340.5,334.8,314.8,337.2,289.1,339.5z
		 M365.2,343.2c-1.2,5.8-3.1,11.4-5.8,16.6c-0.5,1-1.3,1.4-1.7,1.6c-1.2,0.9-2.5,1.3-3.5,1.7c-1.2,0.4-2.1,0.6-2.3,0.6
		c-4.5,0.8-24.8,2.7-35.5,4.5c-9.5,1.6-19.3,1.5-28.8,3.3c-0.3,0.1-1.6,0.3-2.1-0.3c-0.3-0.3-0.3-0.9-0.1-1.9c1.7-6.2,2.4-12.6,3-19
		c0-0.2,0.1-0.9,0.6-1.4c0,0,0.3-0.3,0.7-0.4c2.1-0.7,54.9-5.1,57.5-5.4c4.8-0.4,7.2-0.6,7.8-0.8c2.8-0.6,5.7-0.5,8.5-1
		c0.3,0,1-0.2,1.4,0.2C365.3,341.8,365.4,342.4,365.2,343.2z M191.1,235.4c17.3-3,34.8-4.2,52.4-4.5c11.3-0.2,22.7-0.4,34-0.6
		l-0.1-0.1c1,0.5,2.1,0.4,3.2,0.4c16.7,0.3,33.4,0.4,50,1.4c16,0.9,31.8,3.1,47.5,6.3c0.7,0.1,1.6,0.2,1.4,1.8
		c-9.2-2.7-18.6-3.5-28-4.2c-17.3-1.4-34.6-1.8-52-1.1c-3.6,0.2-6.2,1.9-7.4,5.4c-0.9,2.6-1.8,5.2-2.5,7.8c-3,11.8-6.3,23.5-10.5,35
		c-0.6,1.7-1.4,2.8-3.3,2c5.2-13.8,8.5-28.1,12.8-42c0.9-2.9-0.6-4.7-3.2-5.6c-2.7-0.9-5.5-1.3-8.3-1.3c-10.8-0.1-21.6,0-32.4-0.2
		c-18-0.4-35.9,0.7-53.9,2.2c-3.8,0.3-7.5,0.9-11.3,1.3C183.3,237.3,187.1,236.1,191.1,235.4z M139.1,277.2
		c6.4-7.4,9.8-10.3,15.9-16.6c5.3-5.4,8.6-8.5,15.4-14.8c0.9-0.9,3.1-2.8,6.5-4.1c1.5-0.5,3.1-0.9,4.8-1.1c21.3-1.9,42.6-2.8,64-2.3
		c2.3,0.1,2.9,0.3,3.6,0.4c13.6,2.6,24.3,15.7,25,25.4c0.2,3.3-0.6,7.2-1.2,10.3c-0.3,1.3-0.5,2.2-1.2,3c-1.6,1.9-4.1,2-7.7,2.1
		c-3.4,0.1-6.9,0.2-8-1.7c-0.1-0.1-0.6-1.2-0.2-2c1.2-1.8,7.3,1.1,8.6-0.9c0.2-0.2,0.2-0.4,0.2-0.8c0.9-7.3-1.4-13.3-1.4-13.3
		c-0.6-1.4-1-2.3-1.9-3c-0.9-0.7-2.2-1-3.7-1c-3.8,0.1-7.6,0-11.4,0c-8.2,0-9.9,0.4-10.9,10.8c0,0.4,0,0.9,0,1.3
		c0.2,5,0.6,5.4,5.4,6.1c0.1,0,0.1,0.4,0.2,0.7c0,0.3,0.1,0.6,0.1,1.1c0.2,2-0.3,3.7-0.6,4.4c-11.7-2.3-26.5-4.7-42.5-6.3
		c-4.5-0.5-8.3-0.8-11.2-1c-1.3,0.1-2.8,0.2-2.8,0.5c0,0.3,2.1,0.7,3.3,0.9c7.9,1.3,11.9,2,18.5,3c3.2,0.5,5.9,1,9.4,1.9
		c2.7,0.7,6.3,1.6,6.2,2.2c-0.1,0.8-8.7,0.6-16.3-0.2c-7.4-0.8-8.4-1.7-24.2-5.5c0,0-19.5-4.6-30.8-2c-0.6,0.1-2.4,0.6-2.4,0.8
		c0,0.2,2.1,0.2,2.6,0.1c5.2-0.2,19.6,0.6,30.6,3.3c6.5,1.6,5.6,2.2,11.4,3.8c-3.5,0.1-7.2,0.2-11.5,0.4c-25.3,1.1-38,1.6-43.6,3.2
		c-0.8,0.2-3.2,0.9-3.9,0C132.6,285.2,135.3,281.7,139.1,277.2z M120.7,288.5c-0.6-2.4-1.4-4.5,0.1-5.7c1.9-1.6,4.4-1.1,6.7,0.1
		C124.8,284.2,122.4,285.5,120.7,288.5z M55.8,311.4c11.5-4.4,23.3-7.8,34.9-11.8c11.6-4,23.6-6.5,35.5-9.2
		c8.1-1.8,16.1-3.9,24.3-4.5c14.4-1,28.8-0.8,43.2-0.8c0.5,0,9.7,0.3,28.1,0.9c12,0.4,18.3,0.6,27,1.1c7.2,0.4,13.2,0.8,17.3,1.2
		c-1.4,0.5-2.7,1.1-4,1.5c-19.2,6.6-38.5,12.9-57.2,21c-2.9,1.2-5.9,2.3-8.3,4.5c-1.2,1.1-2.5,1.5-4.1,1.5
		c-5.9-0.1-11.8-0.1-17.7-0.2c-2.8-0.1-5.1,1-7,2.9c-3.2,3.3-5.2,7.2-6.5,11.5c-0.9,2.9-2.3,4-5.6,3.9c-17.1-0.4-34.2-0.5-51.4-0.8
		c-13.3-0.2-26.6-0.6-39.9-0.9c-2.4,0-3.4-0.8-3.3-3.4c0.3-3.8,0.5-7.7,1.5-11.3c0.9-3.3-0.4-3.8-3.1-3.7c-3,0.1-6.1,0-9.8,0
		C52,312.8,53.9,312.2,55.8,311.4z M193.6,339.2c1-5.2,1.9-10.5,2.9-15.8c0.2-1.3,0.2-3.1,2.4-2.6c2.1,0.5,5.2-1.5,6.1,2.5
		c0.7,3.5,0.9,6.9,1,10.4c0.1,7.7,0.1,7.7-7.7,7.9c-0.8,0-1.5,0-2.3,0.1C193.9,342,193.2,341.2,193.6,339.2z M192,339.5
		c-0.3,0.8-0.6,1.3-1.1,1.7c-0.7,0.5-1.5,0.4-1.7,0.4c-1.3,0-25.2-0.3-28.2-0.8c-0.1,0-0.4-0.1-0.5-0.3c-0.2-0.2-0.1-0.6,0-1
		c1.7-6.6,3.5-13.1,8.3-18.2c0.8-0.9,1.6-1.9,3-1.8c7.4,0.2,14.8,0.4,22.2,0.5c1.1,0,1.6,0.3,1.4,1.5
		C194.4,327.5,194,333.6,192,339.5z M158.5,337.4l-0.1,2.7c0,0.6-0.5,1-1.1,1L62,339c-0.6,0-1-0.5-1-1.1l0.1-2.7c0-0.6,0.5-1,1.1-1
		l95.4,2.1C158.1,336.3,158.5,336.8,158.5,337.4z M38,335.5c0.6-3,0.7-3.6,0.7-3.6c1.4-4.1,1-3.6,2.2-7c0.7-2.1,1.1-2.9,1.5-3.7
		c1.1-2.2,1.8-3,2.3-3.4c1.3-1.2,2.4-1.4,2.6-1.5c0.5-0.1,1-0.1,1.6-0.1c3.4,0.5,7,0.3,10.4,0.4c0.8,0,1.7,0.1,2.1,0.6
		c0.3,0.5,0.2,1.1,0.1,1.3c-0.5,2.1-2.2,13.8-1.8,17.9c0,0.2,0.1,0.9-0.3,1.4c-0.8,1.1-2.9,0.8-4.1,0.7c-4.2-0.4-13.8-0.7-15.9-0.7
		c-0.3,0-1.1,0-1.5-0.5C37.7,337.1,37.8,336.4,38,335.5z M39.3,365l-0.1-7.7c0-0.4,0.3-0.8,0.6-0.8l16.7,0.6c0.3,0,0.6,0.4,0.6,0.8
		l0.1,7.7c0,0.4-0.3,0.8-0.6,0.8l-16.7-0.6C39.6,365.9,39.3,365.5,39.3,365z M119.2,400.3c1.6-1.8,3.4-3.4,4.7-5.4
		c1.3-2.2,3-2.8,5.4-2.7c13.2,0.5,26.3,1,39.5,1.5c3.2,0.1,6.4,0.4,9.6,0.7C158.6,396.6,139,399.2,119.2,400.3z M210.8,391.4
		c-23.7,0.9-47.5-0.1-71.2-1c-26.1-0.9-52.3-2.3-78.4-4.2c-3.9-0.3-7.8-0.6-11.7-1c-0.5-0.1-1.6-0.2-2.4-1c-1.1-1.1-1.1-2.9-1-3.7
		c0-0.8,0-1.2,0.3-1.6c0.6-0.7,1.7-0.5,3.5-0.4c1.5,0.1,2.9,0,4.4,0.3c3.9,0.6,32.8,2.4,57.5,4c45.9,2.9,60.8,2.4,68.6,2.6
		c4.7,0.2,9.4,0.2,14.1,0.3c0.3,0,1.2,0.2,1.7-0.3c0.4-0.4,0.5-1.1,0.2-1.6c-0.4-0.6-1.3-0.6-1.6-0.6c-69.7-2.1-69.9-2.1-69.9-2.1
		s-5.7,0.8-75.8-4c-2-0.1-3.1-1-4.3-2.5c-1.2-1.4-0.8-1.6-2.5-4.4c-0.5-0.8-1-1.6-0.8-2c0.2-0.2,0.6-0.1,0.7-0.1
		c2.1,0.4,26.6,1.7,29.8,1.4c0.3,0,1.5-0.1,2,0.5c0.1,0.2,0.2,0.4,0.2,0.8c0,1.7-1.4,0.9-2.2,0.9c-8.3-0.3-16.6-0.8-24.8-1.1
		c-1.2,0-3.1-1.2-3.4,0.3c-0.2,1.3,2.5,2.6,3.3,3c4.4,2.2,61.3,4.1,77.1,4.6c22.6,1.5,46.3,2.3,71,2.1c9.1-0.1,18-0.2,26.7-0.5
		C220.4,389.5,218.7,391.1,210.8,391.4z M75.1,357.6c-0.1-0.8,0.9-1.4,2-1.4l58.1,2c1.2,0,2.1,0.7,2.2,1.5l0.9,13.8
		c0.1,0.8-0.9,1.4-2,1.4l-58.1-2c-1.2,0-2.1-0.7-2.2-1.5L75.1,357.6z M180.9,374c1.1,0,2.3,0,3.5,0c-0.4,1.1-1,0.8-1.5,0.9
		c-13.7,0.6-27.4-0.2-41.2-0.3c-0.9,0-2-0.1-1.9-1.2c0.1-1.3,1.3-0.8,2.1-0.8C154.9,373,167.9,373.5,180.9,374z M167.1,362.3
		c0-0.5,0.3-0.9,0.7-0.9l19.5,0.7c0.4,0,0.7,0.4,0.7,1l0.2,9c0,0.5-0.3,0.9-0.7,0.9l-19.5-0.7c-0.4,0-0.7-0.4-0.7-1L167.1,362.3z
		 M40.7,345.9c-0.4,0-2.1-0.1-3.3,0.9c-0.6,0.6-0.9,1.3-1,1.5c-0.2,0.6-0.2,1.1-0.1,2.9c0.2,2.1,0.3,2.8,0.2,2.8c-0.2,0-0.6-1-0.9-2
		c-1-3.1-2-5.9-0.8-8.3c0.2-0.3,0.6-1.1,1.5-1.7c0,0,1-0.7,2.5-0.7c3.4-0.1,186.9,3.4,186.7,4.6C225.2,347.2,44.9,346,40.7,345.9z
		 M268.5,393.1c-6,11.4-20.9,14.2-29.1,5.4c-11.4-12.1-11.1-32.5,0.8-44.1c7.7-7.6,17.4-7.3,24.7,0.6c5.5,6,7.6,13.3,7.7,21.8
		C272.5,382.3,271.2,387.9,268.5,393.1z M273.4,337.4c-3.7-4.7-7.7-8.2-14.5-7.7c-4.1,0.3-8.1,0.8-11.8,2.1c-2.9,1-5.2,4.1-7.7,6.4
		c-1.3,1.2-2.6,2.1-4.5,2.2c-7.8,0.2-15.7,0.4-23.5,0.7c-2.1,0.1-2.8-0.7-2.8-2.9c0.1-5.4-0.3-10.6-1.6-15.9c-0.8-3.3-2-5.3-5.9-4.8
		c-1.3,0.1-3.6,1.1-4-0.5c-0.3-1.5,2-2.3,3.4-3c10.4-5.1,21.4-9.1,32.3-13c13.4-4.8,26.9-9.2,40.2-14c5.2-1.9,5.3-2,6.1,3.2
		c0.1,0.4,0.2,0.9,0.2,1.3c1.8,10.4,5.8,20.3,6.5,30.9l0-0.1c0.7,3.9,0.8,7.8,1,11.7c0.1,1.9-0.4,2.8-2.4,3
		c-2.9,0.3-5.8,0.4-8.7,1.3C274.9,338.7,274.1,338.3,273.4,337.4z M276.1,340.2c3.5-0.4,7.1-0.8,10.6-1.2c0,0.2,0.1,0.5,0.1,0.7
		c-3.5,0.4-7.1,0.7-10.6,1.1C276.1,340.6,276.1,340.4,276.1,340.2z M278,351.8c0.3-1.7,1.2-2.4,2.4-2.6c2.1-0.4,4.5-0.2,5.6,0.6
		c0.2,0.2,0.8,0.6,0.8,1.3c0,0.1,0,0.1,0,0.2c-1.9,10.3-3.2,17.6-3.2,18.9c0,0.2,0,1.1-0.6,1.6c-0.3,0.3-0.7,0.3-0.8,0.4
		c-1.4,0.2-1.6-0.9-1.8-1.8c-0.6-2.6-1-5.4-1.7-8C277.8,358.9,277.3,355.5,278,351.8z M386.6,387.4c-2.3-0.2-4.6-0.4-7-0.5
		c-5.2-0.3-10.4-0.8-15.6-0.7c-3.9,0.1-7.7-0.2-11.5-0.4c-6.2-0.3-12.5-0.5-18.7-0.4c-4.4,0.1-8.8-0.4-13.2-0.4
		c-7.6,0-15.3-0.6-23.1-0.8c2.3-0.4,4.7-0.9,7-1.2c15.2-2.1,30.4-4.2,45.6-6.4c9.9-1.4,19.8-2.8,29.8-4.2c1-0.1,2.2-0.8,2.7,0.8
		c1.2,4.3,3,8.4,5.4,12.2C388.6,386.9,388.2,387.6,386.6,387.4z M392.1,361c-6.8-0.2-13.4,1.3-20,2.3c-10,1.4-23.3,3.2-34.5,4.8
		c-5.1,0.7-55.9,8.4-56.8,7.4c-0.2-0.3-0.3-0.6-0.3-0.6c-0.1-0.4,0-0.7,0.1-0.9c0.4-0.5,1.6-0.3,1.7-0.3c1.3,0.2,36.5-4.4,112.3-15
		C393.8,360.5,392.9,361,392.1,361z M402.5,338.4c-0.5,1.9-6.2,15.7-7,17.5c-0.1,0.3-0.3,0.7-0.6,1c-0.8,0.9-1.9,1-2.2,1
		c-10.2,1.2-17.8,2-21.5,2.4c-1.3,0.2-4.9,0.6-6.7-1.3c-0.1-0.1-0.1-0.1-0.1-0.1c-1.1-1.4-1-3.7,0.2-6.9c1-2.9,2-5.8,2.6-8.7
		c0.4-2,1.3-2.7,3.3-2.8c2.9-0.2,5.8-0.7,8.8-1c7.1-0.8,14.2-1.5,21.4-2.2c0.5,0,1.5-0.3,1.9,0.1
		C402.7,337.7,402.5,338.2,402.5,338.4z M415,383c-6.4,0-11.6-10.1-11.6-22.6c0-12.5,5.2-22.6,11.6-22.6c6.4,0,11.6,10.1,11.6,22.6
		C426.6,372.9,421.4,383,415,383z"/>
	<path class="st9" d="M352.9,285.5c-2.4-10.8-5.7-21.3-9.8-31.5c-1.5-3.8-3.4-7.6-5-11.4c-0.5-1.1-1.1-2-1.9-2.5
		c-1.1-0.7-2.4-0.7-2.8-0.7c-2.5,0-7.6-0.1-14.4-0.2c-4.7,0-9.4-0.1-14.1,0c-5.1,0.2-6.9,1.7-8.3,6.7c-2.2,8.3-7.2,28.7-8.5,32.9
		c-0.2,0.5-1.2,4.2-1.2,9.1c0,2.7,0,4.1,0.8,5.3c2.1,3.4,8.7,2.7,13.6,2.3c0,0,5.2-0.2,46.3-2.5
		C352.4,292.9,354.1,290.6,352.9,285.5z M345.5,291c-37.7,2.1-42.4,2.3-42.4,2.3c-1.9,0.2-6.3,0.5-6.8-1c-0.1-0.3,0-0.6,0.1-0.7
		c1-2.3,8.9-1.4,18.6-1.5c1.1,0,3.7,0,6.8-0.9c0.8-0.2,1.5-0.5,2-0.6c0.5-0.4,1.2-1,1.7-2c0.4-0.8,0.5-1.7,0.5-2.6
		c-0.1-3.5-0.5-6.9-1.7-10.3c-1-2.8-2.7-4.3-5.8-4.2c-4.2,0.1-8.5,0.1-12.7,0.1c-9.9,0.1-11.5,1.7-11.4,11.6c0,0.4-0.1,0.9,0,1.3
		c1.2,3.9,0.1,7-3.3,9.2c-0.2-0.2-0.4-0.4-0.5-0.6c-0.7-1.1-0.7-2.4-0.7-4.9c0-4.5,1-7.9,1.1-8.3c1.1-3.8,5.7-22.5,7.7-30.1
		c1.2-4.6,2.9-6,7.6-6.1c4.3-0.2,8.6,0,12.9,0c6.2,0.1,10.9,0.2,13.2,0.2c0.5,0,1.6,0,2.6,0.6c0.8,0.5,1.3,1.2,1.8,2.3
		c1.5,3.5,3.1,6.9,4.6,10.4c3.8,9.4,6.8,19,9,28.8C351.2,288.7,349.7,290.8,345.5,291z M315.7,271.4c2.4-0.2,4.7-0.5,5.6,1.1
		c1.2,2.1,0.2,4.5-1.4,6.6C319.2,276.3,318.4,273.7,315.7,271.4z"/>
</g>
<g id="Text">
	<text transform="matrix(1 0 0 1 49.8172 204.0615)"><tspan x="0" y="0" class="st10 st11 st12">rjd</tspan><tspan x="81.5" y="0" class="st7 st11 st12">3</tspan><tspan x="123.3" y="0" class="st10 st11 st12">revisions</tspan></text>
	<g>
		<text transform="matrix(0.866 -0.5 0.5 0.866 249.8778 534.4878)" class="st6 st13 st14">github.com/rjdverse/rjd3toolkit</text>
	</g>
</g>
</svg>
