<?xml version="1.0" encoding="utf-8"?>
<!-- Generator: Adobe Illustrator 19.1.1, SVG Export Plug-In . SVG Version: 6.00 Build 0)  -->
<svg version="1.1" xmlns="http://www.w3.org/2000/svg" xmlns:xlink="http://www.w3.org/1999/xlink" x="0px" y="0px"
	 viewBox="0 0 491 566.9" style="enable-background:new 0 0 491 566.9;" xml:space="preserve">
<style type="text/css">
	.st0{fill:#FBE8B5;}
	.st1{fill:#048196;}
	.st2{fill:#A4DCE2;}
	.st3{fill:#FEC40E;}
	.st4{fill:#183A45;}
	.st5{fill:#A4DAE2;}
	.st6{fill:#0A8095;}
	.st7{font-family:'Helvetica';}
	.st8{font-size:16.8227px;}
</style>
<g id="Background">
	<polygon class="st0" points="245.5,547.6 16.8,415.5 16.8,151.4 245.5,19.4 474.2,151.4 474.2,415.5 	"/>
</g>
<g id="Couleurs">
</g>
<g id="Cadre_noir">
	<path class="st5" d="M78.4,463.9l-1.9-0.5l20.4-79.4l21.5,0.8l20.4,28.3l19.2,12.9l19.5-30.2l20.3-114.8l21.9-0.4L239,401.3
		c0.1,4.5,0.1,9.1,0.2,13.6L218,282.5l-18.5,0.4l-20.1,113.6l-20.9,32.2l-21.2-14.2l-0.1-0.1l-19.9-27.7L98.4,386L78.4,463.9z"/>
	<g>
		<g>
			<path class="st5" d="M82.8,463.7c0-3-2.4-5.4-5.4-5.4s-5.4,2.4-5.4,5.4s2.4,5.4,5.4,5.4S82.8,466.6,82.8,463.7"/>
			<path class="st5" d="M103,384.9c0-3-2.4-5.4-5.4-5.4c-3,0-5.4,2.4-5.4,5.4s2.4,5.4,5.4,5.4C100.6,390.3,103,387.9,103,384.9"/>
			<path class="st5" d="M123.3,385.7c0-3-2.4-5.4-5.4-5.4s-5.4,2.4-5.4,5.4c0,3,2.4,5.4,5.4,5.4S123.3,388.6,123.3,385.7"/>
			<path class="st5" d="M143.4,413.7c0-3-2.4-5.4-5.4-5.4c-3,0-5.4,2.4-5.4,5.4s2.4,5.4,5.4,5.4C141,419.1,143.4,416.7,143.4,413.7"
				/>
			<path class="st5" d="M163.7,427.3c0-3-2.4-5.4-5.4-5.4c-3,0-5.4,2.4-5.4,5.4c0,3,2.4,5.4,5.4,5.4
				C161.3,432.7,163.7,430.3,163.7,427.3"/>
			<path class="st5" d="M183.9,396.1c0-3-2.4-5.4-5.4-5.4c-3,0-5.4,2.4-5.4,5.4c0,3,2.4,5.4,5.4,5.4
				C181.4,401.5,183.9,399.1,183.9,396.1"/>
			<path class="st5" d="M204.1,281.9c0-3-2.4-5.4-5.4-5.4c-3,0-5.4,2.4-5.4,5.4c0,3,2.4,5.4,5.4,5.4
				C201.7,287.3,204.1,284.8,204.1,281.9"/>
			<path class="st5" d="M224.3,281.5c0-3-2.4-5.4-5.4-5.4c-3,0-5.4,2.4-5.4,5.4s2.4,5.4,5.4,5.4
				C221.9,286.9,224.3,284.5,224.3,281.5"/>
			<path class="st5" d="M244.5,408.1c0-3-2.4-5.4-5.4-5.4c-3,0-5.4,2.4-5.4,5.4c0,3,2.4,5.4,5.4,5.4
				C242,413.5,244.5,411.1,244.5,408.1"/>
		</g>
	</g>
	<path class="st6" d="M77.4,464.8c-0.2,0-0.3-0.1-0.3-0.1c-0.5-0.2-0.8-0.8-0.6-1.3l20.2-56.8l20.2-55.5c0.1-0.3,0.4-0.6,0.7-0.6
		c0.3-0.1,0.7,0,0.9,0.2l20.2,19.1c0.1,0.1,0.2,0.3,0.3,0.5l19.1,68.3l19.4-94.9c0-0.1,0.1-0.2,0.1-0.3l20.2-34.1
		c0.2-0.3,0.5-0.5,0.8-0.5c0.4,0,0.7,0.2,0.9,0.5l20.2,31.7l19,36.3l19.6-94.8c7.1-14.7,14.1-29.4,21.2-44.1
		c6.9-3.8,13.8-7.6,20.6-11.4c6.6,15,13.1,29.9,19.7,44.9c0.1,0.2,1.3,2.8,0.6,3.4c-0.1,0.1-0.4,0.2-0.6,0.1c-0.4,0-0.8-0.3-0.9-0.7
		c-6.7-15-13.3-30.1-20-45.1c-6.1,3.4-12.2,6.8-18.3,10.2c-6.8,14.4-13.6,28.8-20.4,43.2l-20.2,97.6c-0.1,0.4-0.4,0.7-0.8,0.8
		c-0.4,0.1-0.8-0.2-1-0.5L218,342.1l-19.3-30.3l-19.3,32.6l-20.2,98.8c-0.1,0.5-0.5,0.8-0.9,0.8c-0.5,0.1-0.9-0.3-1-0.7l-20.1-72.1
		l-18.9-17.9l-19.7,54C81.9,454.3,77.8,464.8,77.4,464.8z"/>
	<g>
		<g>
			<path class="st6" d="M82.8,463.8c0-3-2.4-5.4-5.4-5.4s-5.4,2.4-5.4,5.4s2.4,5.4,5.4,5.4S82.8,466.8,82.8,463.8"/>
			<path class="st6" d="M103,407c0-3-2.4-5.4-5.4-5.4c-3,0-5.4,2.4-5.4,5.4c0,3,2.4,5.4,5.4,5.4C100.6,412.4,103,410,103,407"/>
			<path class="st6" d="M123.3,351.6c0-3-2.4-5.4-5.4-5.4s-5.4,2.4-5.4,5.4c0,3,2.4,5.4,5.4,5.4S123.3,354.6,123.3,351.6"/>
			<path class="st6" d="M143.4,370.7c0-3-2.4-5.4-5.4-5.4c-3,0-5.4,2.4-5.4,5.4c0,3,2.4,5.4,5.4,5.4
				C141,376.1,143.4,373.6,143.4,370.7"/>
			<path class="st6" d="M163.7,443c0-3-2.4-5.4-5.4-5.4c-3,0-5.4,2.4-5.4,5.4s2.4,5.4,5.4,5.4C161.3,448.4,163.7,446,163.7,443"/>
			<path class="st6" d="M183.9,344c0-3-2.4-5.4-5.4-5.4c-3,0-5.4,2.4-5.4,5.4c0,3,2.4,5.4,5.4,5.4C181.4,349.4,183.9,347,183.9,344"
				/>
			<path class="st6" d="M204.1,309.9c0-3-2.4-5.4-5.4-5.4c-3,0-5.4,2.4-5.4,5.4c0,3,2.4,5.4,5.4,5.4
				C201.7,315.3,204.1,312.9,204.1,309.9"/>
			<path class="st6" d="M224.3,341.6c0-3-2.4-5.4-5.4-5.4c-3,0-5.4,2.4-5.4,5.4s2.4,5.4,5.4,5.4C221.9,347,224.3,344.6,224.3,341.6"
				/>
			<path class="st6" d="M244.5,380.4c0-3-2.4-5.4-5.4-5.4c-3,0-5.4,2.4-5.4,5.4c0,3,2.4,5.4,5.4,5.4
				C242,385.8,244.5,383.4,244.5,380.4"/>
			<path class="st6" d="M264.7,282.8c0-3-2.4-5.4-5.4-5.4c-3,0-5.4,2.4-5.4,5.4c0,3,2.4,5.4,5.4,5.4
				C262.3,288.2,264.7,285.8,264.7,282.8"/>
			<path class="st6" d="M285.7,239.4c0-3-2.4-5.4-5.4-5.4c-3,0-5.4,2.4-5.4,5.4s2.4,5.4,5.4,5.4
				C283.3,244.8,285.7,242.4,285.7,239.4"/>
			<path class="st6" d="M305.2,228.6c0-3-2.4-5.4-5.4-5.4c-3,0-5.4,2.4-5.4,5.4c0,3,2.4,5.4,5.4,5.4
				C302.8,234,305.2,231.6,305.2,228.6"/>
			<path class="st6" d="M325.3,274.4c0-3-2.4-5.4-5.4-5.4c-3,0-5.4,2.4-5.4,5.4c0,3,2.4,5.4,5.4,5.4
				C322.9,279.8,325.3,277.4,325.3,274.4"/>
		</g>
	</g>
	<path class="st4" d="M78.4,458.6l-1.8-0.8L96.7,409l20.8-46l21.4,18.4l0.1,0.2l19,42.1l19.6-84.5l20.8-28.6l21.3,8.9l0.2,0.4
		l19.1,46.4l19.5-76.8c6.7-22.2,13.3-44.4,20-66.6c6.5,5.8,13,11.5,19.5,17.3c7.3,20.4,14.6,40.7,21.9,61.1
		c6.5-15.9,13-31.7,19.4-47.6c4.2-23.4,8.4-46.8,12.6-70.2c9.4,13.4,18.9,26.8,28.3,40.1c6.8,17,13.5,34,20.3,50.9
		c6.5-19.5,13.1-39.1,19.6-58.6l1.9,0.6c-7.1,21.1-14.2,42.2-21.3,63.3c-7.5-18.4-14.9-36.8-22.4-55.2c-8.5-12.3-17-24.5-25.5-36.8
		c-3.9,22.1-7.8,44.2-11.6,66.4l0,0.1l-21.6,52.3c-7.6-21.7-15.2-43.3-22.8-65c-5.9-5.1-11.8-10.2-17.7-15.3
		c-6.2,21.2-12.5,42.5-18.7,63.7l-21,82.8l-21.2-51.7l-19.1-8l-19.6,27l-20.8,89.8l-21.3-47.3l-19-16.3l-19.7,43.6L78.4,458.6z"/>
	<g>
		<g>
			<path class="st4" d="M426.4,216.3c0-3-2.4-5.4-5.4-5.4c-3,0-5.4,2.4-5.4,5.4s2.4,5.4,5.4,5.4C424,221.7,426.4,219.3,426.4,216.3"
				/>
			<path class="st4" d="M82.8,458.3c0-3-2.4-5.4-5.4-5.4s-5.4,2.4-5.4,5.4s2.4,5.4,5.4,5.4S82.8,461.2,82.8,458.3"/>
			<path class="st4" d="M103,409.4c0-3-2.4-5.4-5.4-5.4c-3,0-5.4,2.4-5.4,5.4s2.4,5.4,5.4,5.4C100.6,414.8,103,412.4,103,409.4"/>
			<path class="st4" d="M123.3,364.7c0-3-2.4-5.4-5.4-5.4s-5.4,2.4-5.4,5.4c0,3,2.4,5.4,5.4,5.4S123.3,367.6,123.3,364.7"/>
			<path class="st4" d="M143.4,382.1c0-3-2.4-5.4-5.4-5.4c-3,0-5.4,2.4-5.4,5.4s2.4,5.4,5.4,5.4C141,387.5,143.4,385,143.4,382.1"/>
			<path class="st4" d="M163.7,426.8c0-3-2.4-5.4-5.4-5.4c-3,0-5.4,2.4-5.4,5.4s2.4,5.4,5.4,5.4
				C161.3,432.2,163.7,429.8,163.7,426.8"/>
			<path class="st4" d="M183.9,339.7c0-3-2.4-5.4-5.4-5.4c-3,0-5.4,2.4-5.4,5.4s2.4,5.4,5.4,5.4
				C181.4,345.1,183.9,342.7,183.9,339.7"/>
			<path class="st4" d="M204.1,311.9c0-3-2.4-5.4-5.4-5.4c-3,0-5.4,2.4-5.4,5.4c0,3,2.4,5.4,5.4,5.4
				C201.7,317.3,204.1,314.8,204.1,311.9"/>
			<path class="st4" d="M224.3,320.4c0-3-2.4-5.4-5.4-5.4c-3,0-5.4,2.4-5.4,5.4c0,3,2.4,5.4,5.4,5.4
				C221.9,325.8,224.3,323.4,224.3,320.4"/>
			<path class="st4" d="M244.5,369.6c0-3-2.4-5.4-5.4-5.4c-3,0-5.4,2.4-5.4,5.4s2.4,5.4,5.4,5.4C242,375,244.5,372.6,244.5,369.6"/>
			<path class="st4" d="M264.7,289.9c0-3-2.4-5.4-5.4-5.4c-3,0-5.4,2.4-5.4,5.4s2.4,5.4,5.4,5.4
				C262.3,295.3,264.7,292.9,264.7,289.9"/>
			<path class="st4" d="M284.9,225.4c0-3-2.4-5.4-5.4-5.4c-3,0-5.4,2.4-5.4,5.4c0,3,2.4,5.4,5.4,5.4
				C282.5,230.8,284.9,228.4,284.9,225.4"/>
			<path class="st4" d="M302.4,240.5c0-3-2.4-5.4-5.4-5.4c-3,0-5.4,2.4-5.4,5.4c0,3,2.4,5.4,5.4,5.4
				C300,245.9,302.4,243.5,302.4,240.5"/>
			<path class="st4" d="M325.3,303c0-3-2.4-5.4-5.4-5.4c-3,0-5.4,2.4-5.4,5.4s2.4,5.4,5.4,5.4C322.9,308.4,325.3,306,325.3,303"/>
			<path class="st4" d="M345.5,254c0-3-2.4-5.4-5.4-5.4c-3,0-5.4,2.4-5.4,5.4c0,3,2.4,5.4,5.4,5.4C343.1,259.4,345.5,257,345.5,254"
				/>
			<path class="st4" d="M385.9,225.4c0-3-2.4-5.4-5.4-5.4c-3,0-5.4,2.4-5.4,5.4s2.4,5.4,5.4,5.4
				C383.5,230.8,385.9,228.4,385.9,225.4"/>
			<path class="st4" d="M406.2,276.7c0-3-2.4-5.4-5.4-5.4c-3,0-5.4,2.4-5.4,5.4c0,3,2.4,5.4,5.4,5.4
				C403.8,282.1,406.2,279.7,406.2,276.7"/>
		</g>
	</g>
</g>
<g id="Hexagone">
	<path class="st3" d="M245.5,0L0,141.7v283.5l245.5,141.7L491,425.2V141.7L245.5,0z M474.2,415.5l-228.7,132l-228.7-132V151.4
		l228.7-132l228.7,132V415.5z"/>
</g>
<g id="Text">
	<g>
		<g>
			<path class="st1" d="M59.6,172.6l0.6,3.6c2.4-3.9,5.7-4.5,8.9-4.5c3.3,0,6.4,1.3,8.1,3l-3.5,6.8c-1.6-1.3-3.1-2-5.6-2
				c-4.1,0-7.9,2.2-7.9,8v16.6h-7.8v-31.5H59.6z"/>
			<path class="st1" d="M87.8,172.4v38.3c0,7.8-3.4,12.8-10.5,12.8c-2.3,0-4.7-0.6-7-2.1l2.8-6.1c1.3,0.6,2.6,1,3.8,0.9
				c2.6-0.1,3.1-2.1,3.1-5.6v-38.3H87.8z M79.3,163.6c0,6.1,9.2,6.1,9.2,0S79.3,157.5,79.3,163.6z"/>
			<path class="st1" d="M127.1,159.4v44.7h-7.3l-0.5-4.3c-2.4,3.8-6.3,5-10.2,5c-9.3,0-16.2-6.1-16.2-16.5c0-10.9,6.8-16.5,16-16.5
				c3.3,0,8.5,1.8,10.4,5v-17.4H127.1z M100.8,188.3c0,5.5,4,9.3,8.9,9.3c4.9,0,9.1-3.6,9.1-9.3c0-5.5-4.2-9.2-9.1-9.2
				C104.7,179.1,100.8,182.6,100.8,188.3z"/>
			<path class="st3" d="M143.9,184.6v-6.9h6.5c4.5,0,9.3-1.2,9.4-5.4c0-2.6-2-5.9-9.2-5.9c-4,0-9.3,1.4-9.3,5.5h-8.4
				c0-9.6,9.6-13.2,17.8-13.2c8.4,0,17.5,4.1,17.6,13.6c0,3.5-2.3,7.6-6.2,8.8c4.3,1.4,7.3,5.6,7.3,9.4c0,10.9-10.3,14.2-18.9,14.2
				c-8.5,0-18.2-3.6-18.3-13.7h8.5c0,4.6,6.2,6.2,9.8,6.2c4.3,0,10-1.8,10-6.6c0-2.7-1.5-6-9.5-6H143.9z"/>
			<path class="st1" d="M182.9,172.6l0.6,3.6c2.4-3.9,5.7-4.5,8.9-4.5c3.3,0,6.4,1.3,8.1,3l-3.5,6.8c-1.6-1.3-3.1-2-5.6-2
				c-4.1,0-7.9,2.2-7.9,8v16.6h-7.8v-31.5H182.9z"/>
			<path class="st1" d="M210.1,191.1c0.5,3.9,3.9,6.7,9.4,6.7c2.9,0,6.6-1.1,8.4-2.9l5,4.9c-3.3,3.5-8.8,5.1-13.5,5.1
				c-10.9,0-17.3-6.7-17.3-16.8c0-9.6,6.5-16.5,16.7-16.5c10.5,0,17.1,6.5,15.9,19.5H210.1z M227.2,184.6c-0.5-4.1-3.7-6.1-8.2-6.1
				c-4.2,0-7.7,2-8.8,6.1H227.2z"/>
			<path class="st1" d="M272.7,172.5l-13.4,31.7h-8.4l-13.5-31.7h8.5l4.3,10.4l4.9,13.3l4.8-13.2l4.3-10.5H272.7z"/>
			<path class="st1" d="M284.9,163.7c0,6.1-9.2,6.1-9.2,0C275.7,157.6,284.9,157.6,284.9,163.7z M276.4,172.4v31.6h7.8v-31.6H276.4z
				"/>
			<path class="st1" d="M311.8,180.9c-2.2-2.1-4.8-2.8-7.8-2.8c-3.7,0-5.8,1.2-5.8,3.1c0,2,1.9,3.2,5.9,3.5
				c5.9,0.4,13.5,1.7,13.5,10.1c0,5.6-4.5,10.4-13.5,10.4c-5,0-10-0.8-14.6-5.6l3.8-5.6c2.2,2.5,7.3,4.3,10.9,4.4
				c2.9,0.1,5.7-1.5,5.7-3.8c0-2.2-1.8-3.1-6.3-3.3c-5.9-0.4-13-2.6-13-9.8c0-7.3,7.5-9.8,13.3-9.8c4.9,0,8.6,1,12.3,4.2
				L311.8,180.9z"/>
			<path class="st1" d="M331.2,163.7c0,6.1-9.2,6.1-9.2,0C321.9,157.6,331.2,157.6,331.2,163.7z M322.7,172.4v31.6h7.8v-31.6H322.7z
				"/>
			<path class="st4" d="M369.5,188.3c0,9.1-6.2,16.4-16.4,16.4s-16.4-7.3-16.4-16.4c0-9,6.3-16.4,16.3-16.4S369.5,179.3,369.5,188.3
				z"/>
			<path class="st1" d="M398.1,204.1v-16.5c0-4.8-2.6-8.4-7.6-8.4c-4.8,0-8.1,4-8.1,8.8v16.1h-7.7v-31.6h7l0.5,4.3
				c3.2-3.1,6.4-4.7,10.4-4.7c7.4,0,13.4,5.6,13.4,15.5v16.6H398.1z"/>
			<path class="st1" d="M433.1,180.9c-2.2-2.1-4.8-2.8-7.8-2.8c-3.7,0-5.8,1.2-5.8,3.1c0,2,1.9,3.2,5.9,3.5
				c5.9,0.4,13.5,1.7,13.5,10.1c0,5.6-4.5,10.4-13.5,10.4c-5,0-10-0.8-14.6-5.6l3.8-5.6c2.2,2.5,7.3,4.3,10.9,4.4
				c2.9,0.1,5.7-1.5,5.7-3.8c0-2.2-1.8-3.1-6.3-3.3c-5.9-0.4-13-2.6-13-9.8c0-7.3,7.5-9.8,13.3-9.8c4.9,0,8.6,1,12.3,4.2
				L433.1,180.9z"/>
		</g>
	</g>
	<g>
		<text transform="matrix(0.866 -0.5 0.5 0.866 249.2466 535.2409)" class="st1 st7 st8">github.com/rjdverse/rjd3revisions</text>
	</g>
</g>
</svg>
